# xmcd CD database file
#
# Track frame offsets:
#	150
#	19530
#	37212
#	53812
#	65277
#	81240
#	100300
#	122962
#	138792
#	166325
#	182407
#
# Disc length: 2738 seconds
#
# Revision: 0
# Processed by: cddbd v1.5.2PL0 Copyright (c) Steve Scherf et al.
# Submitted via: CDex 1.51
#
DISCID=8d0ab00b
DTITLE=Joe Pass - Sentimental Moods
DYEAR=1990
DGENRE=Jazz
TTITLE0=My Shining Hour
TTITLE1=My Ship
TTITLE2=Once In A While
TTITLE3=Cavaquinho
TTITLE4=In The Wee Small Hours (Of The Morning)
TTITLE5=Secret Love
TTITLE6=I'm Gettin' Sentimental Over You
TTITLE7=When You Wish Upon A Star
TTITLE8=About Time
TTITLE9=Wil You Give Me These
TTITLE10=Guess I'll Hang My Tears Out To Dry
EXTD=YEAR: 1990
EXTT0=
EXTT1=
EXTT2=
EXTT3=
EXTT4=
EXTT5=
EXTT6=
EXTT7=
EXTT8=
EXTT9=
EXTT10=
PLAYORDER=
